PathFileType	4	(X/Y/Z)	E:\Qualisys_Data\Carbon_Farble_Plate\Data\Amateur_Runner\S14\T3\S14T3V11_c3d.trc
DataRate	CameraRate	NumFrames	NumMarkers	Units	OrigDataRate	OrigDataStartFrame	OrigNumFrames
200.000000	200.000000	4	39	mm	200.000000	273	313
Frame#	Time	LSHO			RSHO			LICST			RICST			LASIS			LHEEL			RASIS			LTROC			RTROC			SACR			LTH1			LSK4			LTH2			LTH3			RHM5			LSK2			LTH4			RTH1			LTOE			RTH2			RTH3			RTH4			LLEP			RLEP			LSK1			LSK3			RSK1			LHM5			RSK2			LFT1			RSK3			RSK4			LLME			RLME			RTOE			RHEEL			RFT1			RFT2			LFT2			
		X1	Y1	Z1	X2	Y2	Z2	X3	Y3	Z3	X4	Y4	Z4	X5	Y5	Z5	X6	Y6	Z6	X7	Y7	Z7	X8	Y8	Z8	X9	Y9	Z9	X10	Y10	Z10	X11	Y11	Z11	X12	Y12	Z12	X13	Y13	Z13	X14	Y14	Z14	X15	Y15	Z15	X16	Y16	Z16	X17	Y17	Z17	X18	Y18	Z18	X19	Y19	Z19	X20	Y20	Z20	X21	Y21	Z21	X22	Y22	Z22	X23	Y23	Z23	X24	Y24	Z24	X25	Y25	Z25	X26	Y26	Z26	X27	Y27	Z27	X28	Y28	Z28	X29	Y29	Z29	X30	Y30	Z30	X31	Y31	Z31	X32	Y32	Z32	X33	Y33	Z33	X34	Y34	Z34	X35	Y35	Z35	X36	Y36	Z36	X37	Y37	Z37	X38	Y38	Z38	X39	Y39	Z39	

274	1.365	1995.411743164062	1429.00244140625	-559.4866943359375	1963.460205078125	1428.486694335938	-259.7704772949219	1948.207641601562	986.5831298828124	-541.9224853515625	1971.371459960938	990.9619140625	-263.4947814941406	1991.5888671875	936.4693603515624	-520.6807861328125	1534.551635742188	180.8180847167969	-443.46630859375	1999.573974609375	949.3150024414062	-285.1128845214844	1849.223754882812	874.4269409179688	-555.1793823242188	1872.3125	865.1217651367188	-221.8409729003906	1820.783569335938	987.4262084960938	-405.2387390136719	1891.1708984375	641.1015625	-560.0621337890625	1677.593139648438	343.3355407714844	-517.8939819335938	1816.598022460938	650.7610473632812	-537.9334106445312	1889.092407226562	543.58154296875	-540.0053100585938	1967.752319335938	82.55320739746094	-240.9097747802734	1736.740478515625	420.5645141601562	-536.481201171875	1809.782592773438	553.2625732421875	-522.5660400390625	2071.923583984375	692.0491943359375	-225.6289520263672	1742.476684570312	42.77719879150391	-481.1995849609375	1998.269653320312	666.237060546875	-217.6030120849609	2108.935791015625	600.9056396484375	-250.0988311767578	2030.856201171875	571.00390625	-236.2186584472656	1825.6787109375	475.8297424316406	-536.4136962890625	2068.629150390625	515.3394775390625	-242.5955047607422	1802.79052734375	371.8831176757812	-533.8068237304688	1740.138549804688	292.1318054199219	-520.3817138671875	2043.214477539062	397.4735717773438	-244.0451965332031	1672.59814453125	57.30216598510742	-537.9197387695312	1966.19287109375	434.8409729003906	-249.7122802734375	1532.485717773438	151.3812408447266	-415.28173828125	1993.15234375	308.1889038085938	-263.4137573242188	1925.49560546875	349.0218505859375	-265.5635375976562	1600.924682617188	177.6204986572266	-501.4846496582031	1874.1328125	181.7924346923828	-290.1983032226562	2047.251098632812	64.42874908447266	-298.6876525878906	1817.2666015625	170.3216552734375	-352.9754028320312	1822.006958007812	138.2721099853516	-379.72265625	1803.24560546875	151.7815093994141	-330.1107788085938	1519.264404296875	154.9868621826172	-466.6188049316406
275	1.37	2012.273071289062	1432.435913085938	-557.5604858398438	1977.111572265625	1431.860107421875	-258.4939880371094	1964.445922851562	989.6719970703124	-540.807861328125	1985.108154296875	994.3432006835938	-262.9748840332031	2007.97900390625	939.358642578125	-519.31884765625	1543.0849609375	189.1644287109375	-444.640869140625	2014.582641601562	952.9601440429688	-284.0718994140625	1865.214965820312	878.1504516601562	-554.141357421875	1888.431762695312	869.0206298828125	-220.6595458984375	1837.015991210938	990.556884765625	-404.6767883300781	1903.487915039062	645.0812377929688	-560.31494140625	1685.687622070312	349.1393432617188	-518.9586791992188	1829.314819335938	655.6513671875	-537.5094604492188	1899.730102539062	547.0126953125	-540.8140869140625	2003.290649414062	81.11934661865234	-240.4373626708984	1745.455200195312	426.1854248046875	-537.4598388671875	1820.881591796875	558.2617797851562	-523.5250244140625	2088.4541015625	695.5278930664062	-225.7689666748047	1744.740966796875	41.4847412109375	-481.978759765625	2015.028198242188	669.3484497070312	-217.5846099853516	2125.2568359375	604.8151245117188	-251.1726379394531	2047.36572265625	574.6188354492188	-236.3204803466797	1834.968383789062	480.003173828125	-536.8826293945312	2086.214111328125	519.1764526367188	-243.2657012939453	1811.23095703125	377.1837158203125	-535.1487426757812	1748.062377929688	297.0711059570312	-522.0665283203125	2064.4775390625	399.7662048339844	-244.5791931152344	1675.54052734375	58.40412521362305	-538.9490966796875	1985.829467773438	433.3625183105469	-249.8540344238281	1540.026000976562	159.8240051269531	-416.5948486328125	2018.609619140625	308.0511779785156	-263.5121459960938	1949.276611328125	345.2566223144531	-266.1811218261719	1608.846069335938	183.2555389404297	-503.1799011230469	1905.32421875	176.0864868164062	-289.9389953613281	2083.633056640625	66.23651123046875	-297.7433471679688	1849.135864257812	161.5089416503906	-352.9614562988281	1855.215209960938	129.5461273193359	-379.3006896972656	1836.099243164062	142.4698791503906	-330.0835876464844	1526.873657226562	163.5099945068359	-468.135009765625
276	1.375	2028.958984375	1436.042724609375	-556.0000610351562	1991.081909179688	1435.08837890625	-258.0850219726562	1981.558471679688	992.8016357421876	-539.5191040039062	2004.371826171875	999.113037109375	-261.0372314453125	2024.31201171875	942.2128295898438	-517.8192749023438	1552.249755859375	197.5425109863281	-446.4224243164062	2029.614990234375	956.8604736328124	-282.69384765625	1880.989013671875	881.496826171875	-553.4503784179688	1904.299438476562	872.6895751953125	-219.7527618408203	1853.27490234375	993.7744750976562	-403.9696960449219	1915.50146484375	648.4265747070312	-560.2974853515625	1694.01708984375	354.2557983398438	-519.942626953125	1841.424682617188	659.8587646484375	-537.158447265625	1910.494873046875	550.4317626953125	-541.2769165039062	2039.0830078125	79.90054321289062	-239.5806274414062	1754.216186523438	431.4966735839844	-538.389892578125	1831.993041992188	562.6043701171875	-523.677001953125	2104.639892578125	699.13037109375	-226.1187286376953	1747.212890625	40.35309982299805	-482.8330078125	2031.461059570312	672.723388671875	-217.9739990234375	2141.644287109375	608.4987182617188	-251.8411865234375	2064.199462890625	577.965087890625	-237.1869049072266	1844.612060546875	484.4953918457031	-537.605224609375	2102.94140625	522.1876220703125	-243.8583526611328	1819.817993164062	381.5162658691406	-536.3165893554688	1756.599487304688	302.4490661621094	-523.8477172851562	2085.689453125	401.3612060546875	-245.0444183349609	1678.75537109375	59.99895858764648	-539.9053344726562	2005.579345703125	431.5606384277344	-250.2081604003906	1547.79443359375	168.5393371582031	-418.2628784179688	2043.870361328125	308.0294494628906	-263.0455017089844	1973.018798828125	341.7509155273438	-266.0131225585938	1617.300537109375	188.70068359375	-504.9811401367188	1936.815673828125	170.1810302734375	-289.865234375	2119.835205078125	68.45220947265625	-296.6270446777344	1881.768432617188	153.3211517333984	-352.9134216308594	1889.18896484375	121.029541015625	-378.9029846191406	1869.232055664062	133.9966278076172	-329.1503601074219	1535.04638671875	172.2950286865234	-469.8042602539062
277	1.38	2045.674438476562	1439.016723632812	-554.1393432617188	2005.361938476562	1437.900756835938	-257.3361206054688	1998.21435546875	995.3974609375	-538.193115234375	2017.728271484375	1002.617492675781	-259.5467224121094	2040.741088867188	945.0819091796876	-516.403076171875	1563.365966796875	206.3737945556641	-447.656494140625	2046.9599609375	961.3392944335938	-280.9047546386719	1896.740356445312	885.1256713867188	-552.9442749023438	1919.984252929688	876.0099487304688	-218.6925201416016	1869.64501953125	996.5389404296876	-403.1277770996094	1927.717041015625	652.008056640625	-560.3801879882812	1703.012084960938	359.7041320800781	-520.8726806640625	1854.044067382812	664.12353515625	-536.6947021484375	1921.301635742188	554.027099609375	-542.0100708007812	2074.265625	78.90660858154297	-239.0903015136719	1763.691772460938	436.297119140625	-538.7393188476562	1843.14404296875	566.7274169921875	-523.6980590820312	2120.8896484375	702.0548706054688	-226.2225952148438	1749.594482421875	39.11441040039062	-483.4278564453125	2047.619506835938	675.69189453125	-217.1223754882812	2157.498046875	611.3345947265625	-252.5107727050781	2079.7890625	581.1177368164062	-237.6269226074219	1854.58349609375	489.1259460449219	-538.2523193359375	2119.226806640625	525.0103759765625	-244.6261749267578	1829.040161132812	386.7598266601562	-537.7964477539062	1764.927368164062	307.05029296875	-525.420166015625	2106.506591796875	403.2332153320312	-245.2869873046875	1682.029663085938	61.28927612304688	-540.270263671875	2025.313598632812	429.4323120117188	-250.6722564697266	1556.218872070312	177.56201171875	-419.430419921875	2068.979248046875	307.6819763183594	-263.0722351074219	1996.850341796875	338.3710632324219	-266.1325988769531	1624.78271484375	192.9844970703125	-506.517333984375	1968.662963867188	164.5840454101562	-289.8732604980469	2155.869384765625	71.14203643798828	-295.4949951171875	1914.399047851562	144.9808044433594	-352.9024353027344	1923.313110351562	113.3029556274414	-378.4598083496094	1902.755249023438	124.9638671875	-329.9943237304688	1543.62646484375	181.2160491943359	-471.6034851074219
